<?xml version="1.0" encoding="UTF-8"?>
<svg xmlns="http://www.w3.org/2000/svg" xmlns:xlink="http://www.w3.org/1999/xlink" width="px" height="px" viewBox="0 0 393 329" version="1.1">
<g id="surface1">
<path style=" stroke:none;fill-rule:nonzero;fill:rgb(89.803922%,89.803922%,89.803922%);fill-opacity:1;" d="M 392.886719 89.375 C 392.886719 91.34375 392.824219 93.300781 392.695312 95.238281 C 391.976562 106.421875 389.148438 117.375 384.363281 127.511719 C 384.324219 127.597656 384.285156 127.683594 384.246094 127.761719 C 384.027344 128.234375 383.796875 128.699219 383.5625 129.164062 C 368.765625 158.898438 338.71875 177.992188 305.515625 178.769531 L 306.40625 229.625 L 317.929688 223.550781 L 319.992188 227.46875 L 306.492188 234.574219 L 308.058594 324.28125 L 308.136719 329 L 299.300781 329 L 299.386719 324.28125 L 302.070312 178.777344 C 278.21875 178.4375 255.5 168.550781 238.996094 151.332031 C 238.429688 150.75 237.878906 150.152344 237.328125 149.554688 C 237.304688 149.53125 237.289062 149.507812 237.273438 149.492188 C 230.460938 142.066406 224.949219 133.542969 220.976562 124.285156 C 221.066406 124.386719 221.160156 124.472656 221.246094 124.574219 C 202.601562 80.992188 221.207031 30.429688 263.652344 9.324219 C 263.957031 9.171875 264.28125 9.023438 264.589844 8.867188 C 306.515625 -11.328125 356.925781 3.976562 380.550781 44.074219 C 381.09375 44.988281 381.621094 45.921875 382.121094 46.859375 C 389.203125 59.910156 392.902344 74.527344 392.886719 89.375 Z M 392.886719 89.375 "/>
<path style=" stroke:none;fill-rule:nonzero;fill:rgb(94.509804%,94.509804%,94.509804%);fill-opacity:1;" d="M 21.136719 315.042969 C 14.664062 319.867188 12.832031 328.351562 12.832031 328.351562 C 12.832031 328.351562 21.488281 329.019531 27.957031 324.195312 C 34.429688 319.371094 36.261719 310.886719 36.261719 310.886719 C 36.261719 310.886719 27.605469 310.21875 21.136719 315.042969 Z M 21.136719 315.042969 "/>
<path style=" stroke:none;fill-rule:nonzero;fill:rgb(94.509804%,94.509804%,94.509804%);fill-opacity:1;" d="M 23.832031 317.308594 C 20.722656 324.753906 12.933594 328.59375 12.933594 328.59375 C 12.933594 328.59375 10.1875 320.355469 13.296875 312.910156 C 16.40625 305.460938 24.195312 301.625 24.195312 301.625 C 24.195312 301.625 26.941406 309.859375 23.832031 317.308594 Z M 23.832031 317.308594 "/>
<path style=" stroke:none;fill-rule:nonzero;fill:rgb(79.215686%,79.215686%,79.215686%);fill-opacity:1;" d="M 215.058594 237 C 215.058594 230.648438 190.320312 225.5 159.808594 225.5 C 129.292969 225.5 104.558594 230.648438 104.558594 237 C 104.558594 243.351562 129.292969 248.5 159.808594 248.5 C 190.320312 248.5 215.058594 243.351562 215.058594 237 Z M 215.058594 237 "/>
<path style=" stroke:none;fill-rule:nonzero;fill:rgb(79.215686%,79.215686%,79.215686%);fill-opacity:1;" d="M 156.558594 242.640625 L 163.058594 242.640625 L 163.058594 328.640625 L 156.558594 328.640625 Z M 156.558594 242.640625 "/>
<path style=" stroke:none;fill-rule:nonzero;fill:rgb(100%,72.156863%,72.156863%);fill-opacity:1;" d="M 197.800781 231.558594 C 198.511719 230.160156 199.785156 229.132812 201.300781 228.734375 C 202.816406 228.332031 204.429688 228.597656 205.738281 229.464844 C 205.941406 229.601562 206.136719 229.75 206.320312 229.914062 L 230.179688 224.261719 L 231.941406 218.421875 L 241.457031 219.984375 L 239.511719 229.792969 C 239.023438 232.207031 237.011719 234.015625 234.558594 234.242188 L 207.566406 236.617188 C 207.480469 236.777344 207.390625 236.933594 207.292969 237.085938 C 206.425781 238.390625 205.046875 239.269531 203.496094 239.496094 C 201.945312 239.71875 200.371094 239.273438 199.167969 238.265625 C 198.996094 238.121094 198.832031 237.96875 198.679688 237.800781 C 197.109375 236.109375 196.757812 233.617188 197.800781 231.558594 Z M 197.800781 231.558594 "/>
<path style=" stroke:none;fill-rule:nonzero;fill:rgb(89.411765%,89.411765%,89.411765%);fill-opacity:1;" d="M 249.539062 273.097656 L 225.535156 273.097656 C 225.535156 273.789062 200.796875 274.347656 200.796875 274.347656 C 200.40625 274.640625 200.054688 274.976562 199.742188 275.347656 C 198.800781 276.46875 198.289062 277.886719 198.289062 279.347656 L 198.289062 280.347656 C 198.292969 283.800781 201.089844 286.597656 204.539062 286.597656 L 249.539062 286.597656 C 252.992188 286.597656 255.789062 283.800781 255.789062 280.347656 L 255.789062 279.347656 C 255.785156 275.898438 252.992188 273.105469 249.539062 273.097656 Z M 249.539062 273.097656 "/>
<path style=" stroke:none;fill-rule:nonzero;fill:rgb(89.411765%,89.411765%,89.411765%);fill-opacity:1;" d="M 223.429688 286.351562 L 229.929688 286.351562 L 229.929688 328.351562 L 223.429688 328.351562 Z M 223.429688 286.351562 "/>
<path style=" stroke:none;fill-rule:nonzero;fill:rgb(89.411765%,89.411765%,89.411765%);fill-opacity:1;" d="M 204.929688 328.121094 C 204.929688 328.824219 214.777344 328.394531 226.929688 328.394531 C 239.078125 328.394531 248.929688 328.824219 248.929688 328.121094 C 248.929688 327.417969 239.078125 321.851562 226.929688 321.851562 C 214.777344 321.851562 204.929688 327.417969 204.929688 328.121094 Z M 204.929688 328.121094 "/>
<path style=" stroke:none;fill-rule:nonzero;fill:rgb(100%,72.156863%,72.156863%);fill-opacity:1;" d="M 211.296875 322.699219 L 205.167969 322.699219 L 202.25 306.800781 L 211.296875 306.800781 Z M 211.296875 322.699219 "/>
<path style=" stroke:none;fill-rule:nonzero;fill:rgb(18.431373%,18.039216%,25.490196%);fill-opacity:1;" d="M 212.859375 328.640625 L 193.09375 328.640625 L 193.09375 328.390625 C 193.09375 324.140625 196.539062 320.699219 200.789062 320.699219 L 212.859375 320.699219 Z M 212.859375 328.640625 "/>
<path style=" stroke:none;fill-rule:nonzero;fill:rgb(18.431373%,18.039216%,25.490196%);fill-opacity:1;" d="M 202.128906 312.839844 L 189.910156 285.4375 C 187.792969 280.648438 189.710938 275.035156 194.316406 272.542969 L 220.824219 258.332031 L 232.917969 257.300781 L 244.078125 256.289062 L 244.15625 256.425781 C 244.261719 256.597656 246.660156 260.742188 245.039062 265.285156 C 243.808594 268.730469 240.609375 271.421875 235.527344 273.285156 C 223.671875 277.632812 209.972656 281.347656 204.636719 282.746094 C 204.15625 282.867188 203.753906 283.1875 203.53125 283.625 C 203.304688 284.058594 203.269531 284.5625 203.429688 285.023438 L 214.785156 310.53125 C 215.023438 311.1875 214.949219 311.917969 214.574219 312.507812 C 214.203125 313.097656 213.574219 313.480469 212.878906 313.546875 L 204.398438 314.164062 C 204.324219 314.171875 204.253906 314.175781 204.183594 314.175781 C 203.292969 314.171875 202.488281 313.652344 202.128906 312.839844 Z M 202.128906 312.839844 "/>
<path style=" stroke:none;fill-rule:nonzero;fill:rgb(100%,72.156863%,72.156863%);fill-opacity:1;" d="M 215.296875 322.699219 L 209.167969 322.699219 L 206.25 306.800781 L 215.296875 306.800781 Z M 215.296875 322.699219 "/>
<path style=" stroke:none;fill-rule:nonzero;fill:rgb(18.431373%,18.039216%,25.490196%);fill-opacity:1;" d="M 216.859375 328.640625 L 197.09375 328.640625 L 197.09375 328.390625 C 197.09375 324.140625 200.539062 320.699219 204.789062 320.699219 L 216.859375 320.699219 Z M 216.859375 328.640625 "/>
<path style=" stroke:none;fill-rule:nonzero;fill:rgb(18.431373%,18.039216%,25.490196%);fill-opacity:1;" d="M 206.628906 314.339844 L 194.410156 286.9375 C 192.292969 282.148438 194.210938 276.535156 198.816406 274.042969 L 225.324219 259.832031 L 237.417969 258.800781 L 246.160156 258.042969 L 246.15625 257.925781 C 246.261719 258.097656 248.660156 262.242188 247.039062 266.785156 C 245.808594 270.230469 245.109375 272.921875 240.027344 274.785156 C 228.171875 279.132812 214.472656 282.847656 209.136719 284.246094 C 208.65625 284.367188 208.253906 284.6875 208.03125 285.125 C 207.804688 285.558594 207.769531 286.0625 207.933594 286.523438 L 219.285156 312.03125 C 219.523438 312.6875 219.449219 313.417969 219.074219 314.007812 C 218.703125 314.597656 218.074219 314.980469 217.378906 315.046875 L 208.898438 315.664062 C 208.824219 315.671875 208.753906 315.675781 208.683594 315.675781 C 207.792969 315.671875 206.988281 315.152344 206.628906 314.339844 Z M 206.628906 314.339844 "/>
<path style=" stroke:none;fill-rule:nonzero;fill:rgb(16.862745%,41.176471%,47.843137%);fill-opacity:1;" d="M 229.660156 258.542969 C 229.074219 258.128906 220.660156 262.542969 219.160156 259.042969 C 226.160156 241.542969 221.335938 233.988281 225.621094 223.953125 C 227.152344 220.445312 230.207031 217.832031 233.90625 216.863281 L 245.03125 216.300781 L 245.089844 216.328125 C 250.242188 218.851562 253.132812 224.460938 252.199219 230.121094 C 252.160156 241.042969 245.625 249.375 247.910156 257.296875 C 248.101562 257.964844 248.015625 258.683594 247.667969 259.285156 C 247.328125 259.871094 246.765625 260.289062 246.109375 260.441406 L 231.421875 258.480469 C 230.726562 258.648438 229.996094 258.503906 229.410156 258.09375 Z M 229.660156 258.542969 "/>
<path style=" stroke:none;fill-rule:nonzero;fill:rgb(100%,72.156863%,72.156863%);fill-opacity:1;" d="M 253.597656 199.863281 C 253.597656 206.648438 248.101562 212.144531 241.320312 212.144531 C 234.535156 212.144531 229.039062 206.648438 229.039062 199.863281 C 229.039062 193.082031 234.535156 187.585938 241.320312 187.585938 C 248.101562 187.585938 253.597656 193.082031 253.597656 199.863281 Z M 253.597656 199.863281 "/>
<path style=" stroke:none;fill-rule:nonzero;fill:rgb(18.431373%,18.039216%,25.490196%);fill-opacity:1;" d="M 245.230469 211.136719 C 244.578125 211.421875 243.242188 206.222656 243.839844 205.183594 C 244.730469 203.636719 244.675781 203.648438 245.269531 202.625 C 245.859375 201.601562 245.992188 200.199219 245.226562 199.300781 C 244.460938 198.402344 242.691406 198.519531 242.339844 199.648438 C 242.566406 197.503906 240.445312 195.78125 238.34375 195.296875 C 236.246094 194.8125 234.027344 195.113281 231.917969 194.683594 C 229.464844 194.183594 226.914062 192.128906 227.894531 189.433594 C 228.0625 188.984375 228.3125 188.570312 228.632812 188.214844 C 229.761719 186.945312 231.34375 186.402344 232.890625 185.878906 C 236.105469 184.785156 239.40625 183.679688 242.800781 183.800781 C 248.511719 184.101562 253.507812 187.753906 255.523438 193.105469 C 255.757812 193.761719 255.9375 194.433594 256.066406 195.121094 C 257.230469 201.382812 253.59375 207.558594 247.6875 209.941406 Z M 245.230469 211.136719 "/>
<path style=" stroke:none;fill-rule:nonzero;fill:rgb(89.411765%,89.411765%,89.411765%);fill-opacity:1;" d="M 63.835938 269.480469 L 82.597656 269.480469 C 82.597656 270.285156 103.113281 270.9375 103.113281 270.9375 C 103.566406 271.277344 103.976562 271.667969 104.339844 272.101562 C 105.4375 273.40625 106.035156 275.058594 106.03125 276.761719 L 106.03125 277.929688 C 106.03125 281.949219 102.769531 285.210938 98.75 285.210938 L 63.835938 285.210938 C 59.8125 285.207031 56.554688 281.949219 56.550781 277.929688 L 56.550781 276.761719 C 56.554688 272.742188 59.8125 269.484375 63.835938 269.480469 Z M 63.835938 269.480469 "/>
<path style=" stroke:none;fill-rule:nonzero;fill:rgb(89.411765%,89.411765%,89.411765%);fill-opacity:1;" d="M 77.480469 284.921875 L 85.054688 284.921875 L 85.054688 328.640625 L 77.480469 328.640625 Z M 77.480469 284.921875 "/>
<path style=" stroke:none;fill-rule:nonzero;fill:rgb(89.411765%,89.411765%,89.411765%);fill-opacity:1;" d="M 107.15625 327.832031 C 107.15625 328.648438 95.679688 328.148438 81.519531 328.148438 C 67.359375 328.148438 55.882812 328.648438 55.882812 327.832031 C 55.882812 327.011719 67.359375 320.523438 81.519531 320.523438 C 95.679688 320.523438 107.15625 327.011719 107.15625 327.832031 Z M 107.15625 327.832031 "/>
<path style=" stroke:none;fill-rule:nonzero;fill:rgb(62.352941%,38.039216%,41.568627%);fill-opacity:1;" d="M 112.242188 322.835938 L 117.882812 322.835938 L 120.5625 301.09375 L 112.242188 301.09375 Z M 112.242188 322.835938 "/>
<path style=" stroke:none;fill-rule:nonzero;fill:rgb(18.431373%,18.039216%,25.490196%);fill-opacity:1;" d="M 110.804688 320.996094 L 121.90625 320.996094 C 125.816406 320.996094 128.984375 324.164062 128.984375 328.070312 L 128.984375 328.300781 L 110.804688 328.300781 Z M 110.804688 320.996094 "/>
<path style=" stroke:none;fill-rule:nonzero;fill:rgb(62.352941%,38.039216%,41.568627%);fill-opacity:1;" d="M 128.90625 322.835938 L 134.542969 322.835938 L 137.222656 301.09375 L 128.902344 301.09375 Z M 128.90625 322.835938 "/>
<path style=" stroke:none;fill-rule:nonzero;fill:rgb(18.431373%,18.039216%,25.490196%);fill-opacity:1;" d="M 127.46875 320.996094 L 138.570312 320.996094 C 142.476562 320.996094 145.644531 324.164062 145.644531 328.070312 L 145.644531 328.300781 L 127.46875 328.300781 Z M 127.46875 320.996094 "/>
<path style=" stroke:none;fill-rule:nonzero;fill:rgb(62.352941%,38.039216%,41.568627%);fill-opacity:1;" d="M 109.285156 254.019531 C 109.125 252.761719 108.417969 251.636719 107.351562 250.953125 C 106.285156 250.265625 104.96875 250.085938 103.757812 250.464844 L 97.484375 242.945312 L 91.984375 245.640625 L 100.992188 256.136719 C 101.777344 258.175781 103.964844 259.300781 106.078125 258.761719 C 108.195312 258.222656 109.574219 256.183594 109.285156 254.019531 Z M 109.285156 254.019531 "/>
<path style=" stroke:none;fill-rule:nonzero;fill:rgb(89.411765%,89.411765%,89.411765%);fill-opacity:1;" d="M 88.1875 209.410156 L 91.867188 210.921875 L 92.757812 221.316406 L 102.613281 248.273438 L 94.242188 251.058594 L 84.941406 232.976562 Z M 88.1875 209.410156 "/>
<path style=" stroke:none;fill-rule:nonzero;fill:rgb(62.352941%,38.039216%,41.568627%);fill-opacity:1;" d="M 88.433594 187.59375 C 88.433594 193.003906 84.042969 197.394531 78.632812 197.394531 C 73.21875 197.394531 68.832031 193.003906 68.832031 187.59375 C 68.832031 182.179688 73.21875 177.789062 78.632812 177.789062 C 84.042969 177.789062 88.433594 182.179688 88.433594 187.59375 Z M 88.433594 187.59375 "/>
<path style=" stroke:none;fill-rule:nonzero;fill:rgb(18.431373%,18.039216%,25.490196%);fill-opacity:1;" d="M 77.125 183.03125 C 77.125 183.03125 77.554688 177.078125 82.859375 179.503906 C 88.167969 181.933594 87.820312 175.242188 86.21875 174.058594 C 84.613281 172.875 84.664062 172.582031 78.800781 173.375 C 72.933594 174.164062 61.546875 175.503906 65.230469 187.296875 C 68.910156 199.089844 74.332031 196.019531 74.332031 196.019531 C 74.332031 196.019531 69.320312 185.445312 72.285156 187.464844 L 75.25 189.488281 L 76.816406 189.15625 Z M 77.125 183.03125 "/>
<path style=" stroke:none;fill-rule:nonzero;fill:rgb(18.431373%,18.039216%,25.490196%);fill-opacity:1;" d="M 62.546875 255.011719 C 62.546875 255.011719 59.257812 272.402344 71.769531 274.617188 C 84.28125 276.832031 102.34375 278.386719 102.34375 278.386719 L 110.457031 316.230469 L 121.355469 315.257812 C 121.355469 315.257812 119.90625 269.703125 116.339844 266.136719 C 112.777344 262.574219 95.828125 252.144531 95.828125 252.144531 Z M 62.546875 255.011719 "/>
<path style=" stroke:none;fill-rule:nonzero;fill:rgb(18.431373%,18.039216%,25.490196%);fill-opacity:1;" d="M 86.984375 247.722656 L 92.457031 253.214844 C 92.457031 253.214844 131.972656 259.578125 133.496094 268.703125 C 135.796875 282.484375 138.515625 312.449219 138.515625 312.449219 L 126.636719 311.558594 L 121.976562 277.496094 L 102.96875 273.171875 L 81.339844 261.386719 Z M 86.984375 247.722656 "/>
<path style=" stroke:none;fill-rule:nonzero;fill:rgb(89.411765%,89.411765%,89.411765%);fill-opacity:1;" d="M 86.679688 205.625 L 83.5 201.410156 L 73.191406 201.242188 C 66.640625 204.726562 62.546875 211.546875 62.546875 218.96875 L 62.546875 245.636719 C 62.546875 245.636719 62.691406 249.183594 61.914062 257.335938 C 61.246094 264.367188 98.664062 253.214844 98.664062 253.214844 L 93.808594 213.636719 C 93.808594 213.636719 94.199219 207.335938 86.679688 205.625 Z M 86.679688 205.625 "/>
<path style=" stroke:none;fill-rule:nonzero;fill:rgb(79.215686%,79.215686%,79.215686%);fill-opacity:1;" d="M 376.5 329 L 0.5 329 C 0.222656 329 0 328.777344 0 328.5 C 0 328.222656 0.222656 328 0.5 328 L 376.5 328 C 376.777344 328 377 328.222656 377 328.5 C 377 328.777344 376.777344 329 376.5 329 Z M 376.5 329 "/>
<path style=" stroke:none;fill-rule:nonzero;fill:rgb(89.803922%,89.803922%,89.803922%);fill-opacity:1;" d="M 193.105469 201.71875 C 192.671875 198.789062 192.558594 195.820312 192.765625 192.871094 L 193.105469 187.980469 C 191.21875 191.738281 191.644531 196.679688 193.105469 201.71875 Z M 193.105469 201.71875 "/>
<path style=" stroke:none;fill-rule:nonzero;fill:rgb(89.803922%,89.803922%,89.803922%);fill-opacity:1;" d="M 194.578125 202.535156 C 194.367188 200.789062 194.3125 199.023438 194.414062 197.269531 L 194.578125 194.359375 C 193.671875 196.59375 193.875 199.535156 194.578125 202.535156 Z M 194.578125 202.535156 "/>
<path style=" stroke:none;fill-rule:nonzero;fill:rgb(24.705882%,23.921569%,33.72549%);fill-opacity:1;" d="M 201.121094 206.132812 L 201.121094 207.769531 C 201.117188 208.039062 200.898438 208.257812 200.628906 208.257812 L 199.8125 208.257812 C 199.769531 208.257812 199.726562 208.277344 199.695312 208.304688 C 199.664062 208.335938 199.648438 208.378906 199.648438 208.421875 L 199.648438 221.832031 C 199.648438 222.101562 199.429688 222.320312 199.15625 222.320312 L 189.183594 222.320312 C 188.910156 222.320312 188.691406 222.101562 188.691406 221.832031 L 188.691406 208.421875 C 188.691406 208.332031 188.617188 208.257812 188.527344 208.257812 L 187.546875 208.257812 C 187.277344 208.257812 187.058594 208.039062 187.058594 207.769531 L 187.058594 206.132812 C 187.058594 206.003906 187.109375 205.878906 187.199219 205.785156 C 187.292969 205.695312 187.417969 205.640625 187.546875 205.640625 L 200.628906 205.640625 C 200.898438 205.644531 201.117188 205.863281 201.121094 206.132812 Z M 201.121094 206.132812 "/>
<path style=" stroke:none;fill-rule:nonzero;fill:rgb(16.862745%,41.176471%,47.843137%);fill-opacity:1;" d="M 188.707031 208.601562 L 199.664062 208.601562 L 199.664062 209.09375 L 188.707031 209.09375 Z M 188.707031 208.601562 "/>
<path style=" stroke:none;fill-rule:nonzero;fill:rgb(16.862745%,41.176471%,47.843137%);fill-opacity:1;" d="M 199.648438 215.820312 C 196.097656 217.347656 192.078125 217.347656 188.527344 215.820312 L 188.527344 212.363281 C 192.136719 211.152344 196.039062 211.152344 199.648438 212.363281 Z M 199.648438 215.820312 "/>
<path style=" stroke:none;fill-rule:nonzero;fill:rgb(89.803922%,89.803922%,89.803922%);fill-opacity:1;" d="M 125.605469 212.71875 C 125.171875 209.789062 125.058594 206.820312 125.265625 203.871094 L 125.605469 198.980469 C 123.71875 202.738281 124.144531 207.679688 125.605469 212.71875 Z M 125.605469 212.71875 "/>
<path style=" stroke:none;fill-rule:nonzero;fill:rgb(89.803922%,89.803922%,89.803922%);fill-opacity:1;" d="M 127.078125 213.535156 C 126.867188 211.789062 126.8125 210.023438 126.914062 208.269531 L 127.078125 205.359375 C 126.171875 207.59375 126.375 210.535156 127.078125 213.535156 Z M 127.078125 213.535156 "/>
<path style=" stroke:none;fill-rule:nonzero;fill:rgb(24.705882%,23.921569%,33.72549%);fill-opacity:1;" d="M 133.621094 217.132812 L 133.621094 218.769531 C 133.617188 219.039062 133.398438 219.257812 133.128906 219.257812 L 132.3125 219.257812 C 132.269531 219.257812 132.226562 219.277344 132.195312 219.304688 C 132.164062 219.335938 132.148438 219.378906 132.148438 219.421875 L 132.148438 232.832031 C 132.148438 233.101562 131.929688 233.320312 131.65625 233.320312 L 121.683594 233.320312 C 121.410156 233.320312 121.191406 233.101562 121.191406 232.832031 L 121.191406 219.421875 C 121.191406 219.332031 121.117188 219.257812 121.027344 219.257812 L 120.046875 219.257812 C 119.777344 219.257812 119.558594 219.039062 119.558594 218.769531 L 119.558594 217.132812 C 119.558594 217.003906 119.609375 216.878906 119.699219 216.785156 C 119.792969 216.695312 119.917969 216.640625 120.046875 216.640625 L 133.128906 216.640625 C 133.398438 216.644531 133.617188 216.863281 133.621094 217.132812 Z M 133.621094 217.132812 "/>
<path style=" stroke:none;fill-rule:nonzero;fill:rgb(16.862745%,41.176471%,47.843137%);fill-opacity:1;" d="M 121.207031 219.601562 L 132.164062 219.601562 L 132.164062 220.09375 L 121.207031 220.09375 Z M 121.207031 219.601562 "/>
<path style=" stroke:none;fill-rule:nonzero;fill:rgb(16.862745%,41.176471%,47.843137%);fill-opacity:1;" d="M 132.148438 226.820312 C 128.597656 228.347656 124.578125 228.347656 121.027344 226.820312 L 121.027344 223.363281 C 124.636719 222.152344 128.539062 222.152344 132.148438 223.363281 Z M 132.148438 226.820312 "/>
<path style=" stroke:none;fill-rule:nonzero;fill:rgb(100%,72.156863%,72.156863%);fill-opacity:1;" d="M 218.121094 241.480469 L 196.785156 224.648438 C 196.617188 224.707031 196.441406 224.757812 196.269531 224.800781 C 194.746094 225.15625 193.140625 224.847656 191.859375 223.953125 C 190.566406 223.058594 189.722656 221.648438 189.546875 220.085938 C 189.207031 217.191406 191.183594 214.535156 194.058594 214.027344 C 196.929688 213.523438 199.695312 215.347656 200.363281 218.1875 C 200.417969 218.425781 200.457031 218.667969 200.476562 218.914062 L 221.71875 231.167969 L 227.003906 228.125 L 232.859375 235.789062 L 224.652344 241.640625 C 222.679688 243.035156 220.027344 242.96875 218.121094 241.480469 Z M 218.121094 241.480469 "/>
<path style=" stroke:none;fill-rule:nonzero;fill:rgb(16.862745%,41.176471%,47.843137%);fill-opacity:1;" d="M 235.464844 238.175781 L 223.289062 229.898438 L 229.011719 221.792969 C 230.578125 219.574219 233.519531 218.804688 235.976562 219.972656 C 238.460938 221.160156 239.710938 223.976562 238.921875 226.617188 Z M 235.464844 238.175781 "/>
<path style=" stroke:none;fill-rule:nonzero;fill:rgb(62.352941%,38.039216%,41.568627%);fill-opacity:1;" d="M 125.9375 222.335938 C 124.816406 221.746094 123.488281 221.683594 122.316406 222.167969 C 121.144531 222.648438 120.242188 223.628906 119.863281 224.835938 L 110.105469 225.6875 L 109.171875 231.742188 L 122.9375 230.347656 C 125.054688 230.867188 127.230469 229.71875 127.996094 227.675781 C 128.761719 225.632812 127.878906 223.335938 125.9375 222.335938 Z M 125.9375 222.335938 "/>
<path style=" stroke:none;fill-rule:nonzero;fill:rgb(89.411765%,89.411765%,89.411765%);fill-opacity:1;" d="M 67.652344 213.453125 L 64.894531 215.511719 C 64.894531 215.511719 63.363281 219.21875 66.363281 224.136719 C 69.363281 229.058594 88.382812 239.429688 88.382812 239.429688 L 119.175781 231.566406 L 114.789062 222.957031 L 92.351562 223.585938 C 92.351562 223.585938 79.664062 207.769531 67.652344 213.453125 Z M 67.652344 213.453125 "/>
</g>
</svg>
